<?xml version="1.0" standalone="no"?>
<!DOCTYPE svg PUBLIC "-//W3C//DTD SVG 20010904//EN"
 "http://www.w3.org/TR/2001/REC-SVG-20010904/DTD/svg10.dtd">
<svg version="1.0" xmlns="http://www.w3.org/2000/svg"
 width="100.000000pt" height="100.000000pt" viewBox="0 0 100.000000 100.000000"
 preserveAspectRatio="xMidYMid meet">

<g transform="translate(0.000000,100.000000) scale(0.100000,-0.100000)"
fill="#000000" stroke="none">
<path d="M416 800 c-14 -22 -26 -46 -26 -54 0 -24 -30 -27 -57 -6 -56 44 -151
34 -197 -21 -30 -35 -36 -112 -11 -145 21 -28 19 -32 -20 -51 -34 -16 -35 -19
-35 -71 0 -51 3 -58 67 -138 36 -46 70 -84 75 -84 5 0 23 7 39 16 29 15 31 14
52 -13 12 -15 31 -38 43 -52 l21 -24 107 58 107 57 17 -23 c9 -13 30 -39 47
-58 l31 -33 129 68 130 69 3 61 c3 56 0 63 -32 105 -20 24 -36 52 -36 61 0 32
-50 78 -91 84 -21 4 -39 9 -39 13 0 3 -22 33 -50 66 -27 33 -50 64 -50 68 0 5
-14 26 -32 48 -31 38 -32 39 -98 39 l-67 0 -27 -40z m173 -12 c24 -30 24 -30
6 -64 -17 -32 -21 -34 -75 -34 -51 0 -58 3 -78 30 -27 36 -27 41 -1 74 17 22
28 26 72 25 46 0 55 -4 76 -31z m-294 -52 c46 -20 66 -53 61 -105 -11 -133
-211 -135 -222 -1 -5 53 14 86 59 105 41 18 60 18 102 1z m151 -48 c8 -16 13
-32 11 -35 -6 -6 -47 52 -47 67 0 18 19 2 36 -32z m155 -11 c-11 -17 -21 -26
-21 -19 0 20 34 75 38 62 2 -6 -6 -25 -17 -43z m-31 -27 c0 -17 -7 -20 -50
-20 -43 0 -50 3 -50 20 0 17 7 20 50 20 43 0 50 -3 50 -20z m257 -94 c29 -34
29 -58 0 -92 -46 -54 -178 -39 -193 21 -17 68 28 108 115 102 44 -3 59 -9 78
-31z m-296 -72 c49 -60 59 -78 48 -85 -25 -17 -211 -110 -214 -107 -1 2 -30
38 -63 81 -34 43 -62 81 -62 83 0 7 202 104 217 104 6 0 40 -34 74 -76z m-191
53 c0 -7 -27 -26 -60 -42 l-59 -28 -3 -61 -3 -61 -59 73 c-32 40 -57 74 -55
76 26 23 72 34 125 30 41 -4 67 -1 84 10 14 8 26 14 28 15 1 1 2 -5 2 -12z
m275 -94 c12 -54 96 -92 162 -74 46 13 83 48 83 79 l0 25 25 -23 c14 -13 25
-26 25 -29 0 -4 -52 -33 -115 -66 l-116 -60 -34 40 c-19 22 -35 48 -35 57 0
10 -14 33 -31 52 l-30 35 28 15 c26 14 28 13 31 -7 1 -12 5 -32 7 -44z m-429
-85 c16 -23 24 -46 22 -64 -3 -26 -6 -24 -60 44 -45 55 -58 78 -58 104 l1 33
34 -40 c19 -22 47 -56 61 -77z m635 50 c-25 -22 -41 -28 -77 -28 -38 0 -104
22 -104 34 0 3 -3 11 -6 20 -5 13 2 12 41 -5 53 -24 110 -19 147 11 36 29 35
0 -1 -32z m-518 -55 c49 -61 57 -78 57 -113 l0 -42 -65 81 c-57 70 -65 85 -65
123 0 23 4 38 8 33 5 -6 34 -42 65 -82z m617 3 l0 -44 -116 -61 c-64 -34 -118
-61 -120 -61 -2 0 -4 20 -4 44 l0 44 113 61 c61 33 115 60 120 60 4 1 7 -19 7
-43z m-320 -8 l0 -43 -106 -55 c-58 -30 -109 -56 -115 -58 -5 -2 -9 16 -9 40
l0 43 108 57 c59 31 110 57 115 57 4 1 7 -18 7 -41z m70 -107 c0 -24 -2 -42
-4 -40 -43 44 -62 80 -58 115 l5 38 28 -35 c22 -26 29 -45 29 -78z m-415 67
c14 -21 14 -24 -2 -35 -26 -20 -33 -16 -33 22 0 40 12 45 35 13z"/>
<path d="M140 615 c0 -15 70 -45 105 -45 22 0 54 9 73 20 44 27 41 35 -5 10
-21 -11 -51 -20 -68 -20 -17 0 -47 9 -68 20 -20 11 -37 18 -37 15z"/>
</g>
</svg>
